<?xml version="1.0" encoding="UTF-8"?>
<!--Generator: Apple Native CoreSVG 341-->
<!DOCTYPE svg
PUBLIC "-//W3C//DTD SVG 1.1//EN"
       "http://www.w3.org/Graphics/SVG/1.1/DTD/svg11.dtd">
<svg version="1.1" xmlns="http://www.w3.org/2000/svg" xmlns:xlink="http://www.w3.org/1999/xlink" viewBox="0 0 3300 2200">
 <!--glyph: "", point size: 100.0, font version: "21.1d1e1", template writer version: "138.0.0"-->
 <style>.defaults {-sfsymbols-variable-value-mode:color;-sfsymbols-draw-reverses-motion-groups:true}

.monochrome-0 {-sfsymbols-motion-group:0;-sfsymbols-layer-tags:-5d51964cbb8ced0e}

.multicolor-0:tintColor {-sfsymbols-motion-group:0;-sfsymbols-layer-tags:-5d51964cbb8ced0e}

.hierarchical-0:primary {-sfsymbols-motion-group:0;-sfsymbols-layer-tags:-5d51964cbb8ced0e}

.SFSymbolsPreviewWireframe {fill:none;opacity:1.0;stroke:black;stroke-width:0.5}
</style>
 <g id="Notes">
  <rect height="2200" id="artboard" style="fill:white;opacity:1" width="3300" x="0" y="0"/>
  <line style="fill:none;stroke:black;opacity:1;stroke-width:0.5;" x1="263" x2="3036" y1="292" y2="292"/>
  <text style="stroke:none;fill:black;font-family:sans-serif;font-size:13;font-weight:bold;" transform="matrix(1 0 0 1 263 322)">Weight/Scale Variations</text>
  <text style="stroke:none;fill:black;font-family:sans-serif;font-size:13;text-anchor:middle;" transform="matrix(1 0 0 1 559.711 322)">Ultralight</text>
  <text style="stroke:none;fill:black;font-family:sans-serif;font-size:13;text-anchor:middle;" transform="matrix(1 0 0 1 856.422 322)">Thin</text>
  <text style="stroke:none;fill:black;font-family:sans-serif;font-size:13;text-anchor:middle;" transform="matrix(1 0 0 1 1153.13 322)">Light</text>
  <text style="stroke:none;fill:black;font-family:sans-serif;font-size:13;text-anchor:middle;" transform="matrix(1 0 0 1 1449.84 322)">Regular</text>
  <text style="stroke:none;fill:black;font-family:sans-serif;font-size:13;text-anchor:middle;" transform="matrix(1 0 0 1 1746.56 322)">Medium</text>
  <text style="stroke:none;fill:black;font-family:sans-serif;font-size:13;text-anchor:middle;" transform="matrix(1 0 0 1 2043.27 322)">Semibold</text>
  <text style="stroke:none;fill:black;font-family:sans-serif;font-size:13;text-anchor:middle;" transform="matrix(1 0 0 1 2339.98 322)">Bold</text>
  <text style="stroke:none;fill:black;font-family:sans-serif;font-size:13;text-anchor:middle;" transform="matrix(1 0 0 1 2636.69 322)">Heavy</text>
  <text style="stroke:none;fill:black;font-family:sans-serif;font-size:13;text-anchor:middle;" transform="matrix(1 0 0 1 2933.4 322)">Black</text>
  <line style="fill:none;stroke:black;opacity:1;stroke-width:0.5;" x1="263" x2="3036" y1="1903" y2="1903"/>
  <g transform="matrix(0.2 0 0 0.2 263 1933)">
   <path d="m46.2402 4.15039c21.7773 0 39.4531-17.627 39.4531-39.4043s-17.6758-39.4043-39.4531-39.4043c-21.7285 0-39.4043 17.627-39.4043 39.4043s17.6758 39.4043 39.4043 39.4043Zm0-7.42188c-17.6758 0-31.9336-14.3066-31.9336-31.9824s14.2578-31.9824 31.9336-31.9824 31.9824 14.3066 31.9824 31.9824-14.3066 31.9824-31.9824 31.9824Zm3.61328-17.7734v-28.4668c0-2.24609-1.46484-3.75977-3.71094-3.75977-2.14844 0-3.61328 1.51367-3.61328 3.75977v28.4668c0 2.19727 1.46484 3.71094 3.61328 3.71094 2.24609 0 3.71094-1.51367 3.71094-3.71094Zm-17.8223-10.5957h28.418c2.19727 0 3.71094-1.46484 3.71094-3.61328 0-2.19727-1.51367-3.71094-3.71094-3.71094h-28.418c-2.24609 0-3.75977 1.51367-3.75977 3.71094 0 2.14844 1.51367 3.61328 3.75977 3.61328Z"/>
  </g>
  <g transform="matrix(0.2 0 0 0.2 281.506 1933)">
   <path d="m58.5449 14.5508c27.4902 0 49.8047-22.3145 49.8047-49.8047s-22.3145-49.8047-49.8047-49.8047-49.8047 22.3145-49.8047 49.8047 22.3145 49.8047 49.8047 49.8047Zm0-8.30078c-22.9492 0-41.5039-18.5547-41.5039-41.5039s18.5547-41.5039 41.5039-41.5039 41.5039 18.5547 41.5039 41.5039-18.5547 41.5039-41.5039 41.5039Zm4.05273-23.0957v-36.9141c0-2.49023-1.70898-4.19922-4.15039-4.19922-2.39258 0-4.05273 1.70898-4.05273 4.19922v36.9141c0 2.44141 1.66016 4.15039 4.05273 4.15039 2.44141 0 4.15039-1.66016 4.15039-4.15039Zm-22.5586-14.4043h36.9629c2.44141 0 4.15039-1.61133 4.15039-4.00391 0-2.44141-1.70898-4.15039-4.15039-4.15039h-36.9629c-2.49023 0-4.15039 1.70898-4.15039 4.15039 0 2.39258 1.66016 4.00391 4.15039 4.00391Z"/>
  </g>
  <g transform="matrix(0.2 0 0 0.2 304.924 1933)">
   <path d="m74.8535 28.3203c35.1074 0 63.623-28.4668 63.623-63.5742s-28.5156-63.623-63.623-63.623-63.5742 28.5156-63.5742 63.623 28.4668 63.5742 63.5742 63.5742Zm0-9.08203c-30.127 0-54.4922-24.3652-54.4922-54.4922s24.3652-54.4922 54.4922-54.4922 54.4922 24.3652 54.4922 54.4922-24.3652 54.4922-54.4922 54.4922Zm4.44336-30.3223v-48.4863c0-2.73438-1.85547-4.63867-4.54102-4.63867-2.58789 0-4.44336 1.9043-4.44336 4.63867v48.4863c0 2.68555 1.85547 4.58984 4.44336 4.58984 2.68555 0 4.54102-1.85547 4.54102-4.58984Zm-28.7109-19.7754h48.4863c2.68555 0 4.58984-1.80664 4.58984-4.39453 0-2.73438-1.85547-4.58984-4.58984-4.58984h-48.4863c-2.73438 0-4.58984 1.85547-4.58984 4.58984 0 2.58789 1.85547 4.39453 4.58984 4.39453Z"/>
  </g>
  <text style="stroke:none;fill:black;font-family:sans-serif;font-size:13;font-weight:bold;" transform="matrix(1 0 0 1 263 1953)">Design Variations</text>
  <text style="stroke:none;fill:black;font-family:sans-serif;font-size:13;" transform="matrix(1 0 0 1 263 1971)">Symbols are supported in up to nine weights and three scales.</text>
  <text style="stroke:none;fill:black;font-family:sans-serif;font-size:13;" transform="matrix(1 0 0 1 263 1989)">For optimal layout with text and other symbols, vertically align</text>
  <text style="stroke:none;fill:black;font-family:sans-serif;font-size:13;" transform="matrix(1 0 0 1 263 2007)">symbols with the adjacent text.</text>
  <line style="fill:none;stroke:#00AEEF;stroke-width:0.5;opacity:1.0;" x1="776" x2="776" y1="1919" y2="1933"/>
  <g transform="matrix(0.2 0 0 0.2 776 1933)">
   <path d="m16.5527 0.78125c2.58789 0 3.85742-0.976562 4.78516-3.71094l20.5566-57.5195h0.244141l20.6055 57.5195c0.927734 2.73438 2.19727 3.71094 4.73633 3.71094 2.58789 0 4.24805-1.5625 4.24805-4.00391 0-0.830078-0.146484-1.61133-0.537109-2.63672l-22.9004-60.9863c-1.12305-2.97852-3.125-4.49219-6.25-4.49219-3.02734 0-5.07812 1.46484-6.15234 4.44336l-22.9004 61.084c-0.390625 1.02539-0.537109 1.80664-0.537109 2.63672 0 2.44141 1.5625 3.95508 4.10156 3.95508Zm10.2051-20.9473h30.6641c2.00195 0 3.66211-1.66016 3.66211-3.66211 0-2.05078-1.66016-3.66211-3.66211-3.66211h-30.6641c-2.00195 0-3.66211 1.61133-3.66211 3.66211 0 2.00195 1.66016 3.66211 3.66211 3.66211Z"/>
  </g>
  <line style="fill:none;stroke:#00AEEF;stroke-width:0.5;opacity:1.0;" x1="792.836" x2="792.836" y1="1919" y2="1933"/>
  <text style="stroke:none;fill:black;font-family:sans-serif;font-size:13;font-weight:bold;" transform="matrix(1 0 0 1 776 1953)">Margins</text>
  <text style="stroke:none;fill:black;font-family:sans-serif;font-size:13;" transform="matrix(1 0 0 1 776 1971)">Leading and trailing margins on the left and right side of each symbol</text>
  <text style="stroke:none;fill:black;font-family:sans-serif;font-size:13;" transform="matrix(1 0 0 1 776 1989)">can be adjusted by modifying the x-location of the margin guidelines.</text>
  <text style="stroke:none;fill:black;font-family:sans-serif;font-size:13;" transform="matrix(1 0 0 1 776 2007)">Modifications are automatically applied proportionally to all</text>
  <text style="stroke:none;fill:black;font-family:sans-serif;font-size:13;" transform="matrix(1 0 0 1 776 2025)">scales and weights.</text>
  <g transform="matrix(0.2 0 0 0.2 1289 1933)">
   <path d="m14.209 13.1348 7.86133 7.86133c4.29688 4.39453 9.32617 4.10156 13.8672-1.02539l60.6934-68.2129-4.88281-4.88281-60.2539 67.6758c-1.80664 1.95312-3.4668 2.44141-5.81055 0.0976562l-5.17578-5.12695c-2.29492-2.29492-1.80664-3.95508 0.195312-5.81055l67.4805-62.1582-4.88281-4.83398-68.0664 62.5977c-4.98047 4.58984-5.32227 9.47266-1.02539 13.8184Zm44.873-97.4609c-2.05078 2.00195-2.24609 4.88281-1.07422 6.78711 1.12305 1.80664 3.4668 3.02734 6.5918 2.24609 5.85938-1.66016 12.5977-2.39258 18.8965 0.927734l-2.68555 7.12891c-1.61133 4.00391-0.732422 6.88477 1.70898 9.42383l10.2539 10.3027c2.34375 2.39258 4.54102 2.44141 7.08008 1.95312l4.44336-0.732422 2.58789 2.53906-0.195312 2.24609c-0.0976562 2.29492 0.537109 4.29688 2.7832 6.49414l3.36914 3.32031c2.29492 2.29492 5.51758 2.49023 7.8125 0.195312l12.9883-13.0371c2.29492-2.34375 2.14844-5.37109-0.195312-7.66602l-3.41797-3.41797c-2.19727-2.19727-4.05273-3.02734-6.34766-2.88086l-2.34375 0.244141-2.44141-2.44141 1.02539-4.6875c0.634766-2.73438-0.244141-4.98047-2.88086-7.61719l-11.2793-11.1816c-12.9395-12.8418-35.5957-11.0352-46.6797-0.146484Zm7.08008 2.05078c8.78906-6.39648 25.9766-5.66406 33.6914 1.95312l12.3047 12.207c1.02539 1.02539 1.2207 1.80664 0.927734 3.32031l-1.46484 6.64062 6.73828 6.68945 4.39453-0.244141c1.12305-0.0488281 1.51367 0.0488281 2.34375 0.878906l2.53906 2.49023-10.8398 10.8398-2.49023-2.49023c-0.830078-0.878906-0.976562-1.2207-0.927734-2.39258l0.292969-4.3457-6.68945-6.73828-6.83594 1.17188c-1.41602 0.292969-2.05078 0.195312-3.17383-0.878906l-8.93555-8.88672c-1.07422-1.02539-1.17188-1.70898-0.488281-3.36914l4.58984-11.4746c-6.10352-6.34766-17.041-7.51953-25.5859-4.58984-0.683594 0.244141-0.927734-0.390625-0.390625-0.78125Z"/>
  </g>
  <text style="stroke:none;fill:black;font-family:sans-serif;font-size:13;font-weight:bold;" transform="matrix(1 0 0 1 1289 1953)">Exporting</text>
  <text style="stroke:none;fill:black;font-family:sans-serif;font-size:13;" transform="matrix(1 0 0 1 1289 1971)">Symbols should be outlined when exporting to ensure the</text>
  <text style="stroke:none;fill:black;font-family:sans-serif;font-size:13;" transform="matrix(1 0 0 1 1289 1989)">design is preserved when submitting to Xcode.</text>
  <text id="template-version" style="stroke:none;fill:black;font-family:sans-serif;font-size:13;text-anchor:end;" transform="matrix(1 0 0 1 3036 1933)">Template v.7.0</text>
  <text style="stroke:none;fill:black;font-family:sans-serif;font-size:13;text-anchor:end;" transform="matrix(1 0 0 1 3036 1951)">Requires Xcode 26 or greater</text>
  <text id="descriptive-name" style="stroke:none;fill:black;font-family:sans-serif;font-size:13;text-anchor:end;" transform="matrix(1 0 0 1 3036 1969)">Generated from coffee.grinder</text>
  <text style="stroke:none;fill:black;font-family:sans-serif;font-size:13;text-anchor:end;" transform="matrix(1 0 0 1 3036 1987)">Typeset at 100.0 points</text>
  <text style="stroke:none;fill:black;font-family:sans-serif;font-size:13;" transform="matrix(1 0 0 1 263 726)">Small</text>
  <text style="stroke:none;fill:black;font-family:sans-serif;font-size:13;" transform="matrix(1 0 0 1 263 1156)">Medium</text>
  <text style="stroke:none;fill:black;font-family:sans-serif;font-size:13;" transform="matrix(1 0 0 1 263 1586)">Large</text>
 </g>
 <g id="Guides">
  <g id="H-reference" style="fill:#27AAE1;stroke:none;" transform="matrix(1 0 0 1 339 696)">
   <path d="M0.993654 0L3.63775 0L29.3281-67.1323L30.0303-67.1323L30.0303-70.459L28.1226-70.459ZM11.6885-24.4799L46.9815-24.4799L46.2315-26.7285L12.4385-26.7285ZM55.1196 0L57.7637 0L30.6382-70.459L29.4326-70.459L29.4326-67.1323Z"/>
  </g>
  <line id="Baseline-S" style="fill:none;stroke:#27AAE1;opacity:1;stroke-width:0.5;" x1="263" x2="3036" y1="696" y2="696"/>
  <line id="Capline-S" style="fill:none;stroke:#27AAE1;opacity:1;stroke-width:0.5;" x1="263" x2="3036" y1="625.541" y2="625.541"/>
  <g id="H-reference" style="fill:#27AAE1;stroke:none;" transform="matrix(1 0 0 1 339 1126)">
   <path d="M0.993654 0L3.63775 0L29.3281-67.1323L30.0303-67.1323L30.0303-70.459L28.1226-70.459ZM11.6885-24.4799L46.9815-24.4799L46.2315-26.7285L12.4385-26.7285ZM55.1196 0L57.7637 0L30.6382-70.459L29.4326-70.459L29.4326-67.1323Z"/>
  </g>
  <line id="Baseline-M" style="fill:none;stroke:#27AAE1;opacity:1;stroke-width:0.5;" x1="263" x2="3036" y1="1126" y2="1126"/>
  <line id="Capline-M" style="fill:none;stroke:#27AAE1;opacity:1;stroke-width:0.5;" x1="263" x2="3036" y1="1055.54" y2="1055.54"/>
  <g id="H-reference" style="fill:#27AAE1;stroke:none;" transform="matrix(1 0 0 1 339 1556)">
   <path d="M0.993654 0L3.63775 0L29.3281-67.1323L30.0303-67.1323L30.0303-70.459L28.1226-70.459ZM11.6885-24.4799L46.9815-24.4799L46.2315-26.7285L12.4385-26.7285ZM55.1196 0L57.7637 0L30.6382-70.459L29.4326-70.459L29.4326-67.1323Z"/>
  </g>
  <line id="Baseline-L" style="fill:none;stroke:#27AAE1;opacity:1;stroke-width:0.5;" x1="263" x2="3036" y1="1556" y2="1556"/>
  <line id="Capline-L" style="fill:none;stroke:#27AAE1;opacity:1;stroke-width:0.5;" x1="263" x2="3036" y1="1485.54" y2="1485.54"/>
  <line id="right-margin-Black-S" style="fill:none;stroke:#00AEEF;stroke-width:0.5;opacity:1.0;" x1="2977.69" x2="2977.69" y1="600.785" y2="720.121"/>
  <line id="left-margin-Black-S" style="fill:none;stroke:#00AEEF;stroke-width:0.5;opacity:1.0;" x1="2889.11" x2="2889.11" y1="600.785" y2="720.121"/>
  <line id="right-margin-Regular-S" style="fill:none;stroke:#00AEEF;stroke-width:0.5;opacity:1.0;" x1="1494.13" x2="1494.13" y1="600.785" y2="720.121"/>
  <line id="left-margin-Regular-S" style="fill:none;stroke:#00AEEF;stroke-width:0.5;opacity:1.0;" x1="1405.56" x2="1405.56" y1="600.785" y2="720.121"/>
  <line id="right-margin-Ultralight-S" style="fill:none;stroke:#00AEEF;stroke-width:0.5;opacity:1.0;" x1="604" x2="604" y1="600.785" y2="720.121"/>
  <line id="left-margin-Ultralight-S" style="fill:none;stroke:#00AEEF;stroke-width:0.5;opacity:1.0;" x1="515.423" x2="515.423" y1="600.785" y2="720.121"/>
 </g>
 <g id="Symbols">
  <g id="Black-S" transform="matrix(1.00656 0 0 1.00656 2889.11 696)">
   <path class="monochrome-0 multicolor-0:tintColor hierarchical-0:primary SFSymbolsPreviewWireframe" d="M40.513-30.63C40.997-30.63 41.388-30.239 41.388-29.755C41.388-24.937 41.388-1.889 41.388-1.865C41.388-1.865 41.388-1.859 41.388-1.859C41.376-0.955 40.629-0.174 39.737-0.115C39.737-0.109 39.731-0.109 39.731-0.109C35.677 0.036 31.617 0.036 27.562-0.109C27.562-0.109 27.557-0.109 27.557-0.115C26.699-0.168 25.964-0.885 25.906-1.76C25.906-1.766 25.906-1.766 25.906-1.772C25.562-11.094 25.882-20.427 25.906-29.755C25.906-30.239 26.297-30.63 26.781-30.63C29.499-30.63 37.794-30.63 40.513-30.63ZM34.673-16.624C34.691-16.624 34.703-16.624 34.72-16.624C36.126-16.496 37.275-15.358 37.403-13.94C37.403-13.917 37.403-13.9 37.403-13.882C37.468-11.345 37.409-8.807 37.409-6.27C37.409-6.264 37.409-6.258 37.409-6.258C37.363-4.794 36.19-3.551 34.72-3.423C34.708-3.417 34.697-3.417 34.685-3.417C33.728-3.394 32.754-3.277 31.902-3.545C29.079-4.42 29.89-9.577 29.89-13.771C29.89-13.777 29.89-13.783 29.89-13.783C29.931-15.247 31.103-16.49 32.573-16.618C32.585-16.624 32.597-16.624 32.608-16.624C33.297-16.641 33.985-16.641 34.673-16.624ZM34.003-14.15C34.003-14.15 34.003-14.15 34.003-14.15C34.481-14.15 34.848-14.086 34.889-13.8C34.889-13.795 34.889-13.795 34.889-13.795C35.082-11.292 34.953-8.772 34.889-6.264C34.889-6.264 34.889-6.258 34.889-6.258C34.86-5.914 34.253-5.733 33.647-5.733L33.635-5.733C33.04-5.733 32.457-5.896 32.404-6.24C32.404-6.24 32.404-6.246 32.404-6.246C32.212-8.749 32.34-11.269 32.404-13.777C32.404-13.777 32.404-13.783 32.404-13.783C32.422-13.964 32.573-14.104 32.772-14.11C32.772-14.11 32.772-14.11 32.772-14.11C33.163-14.11 33.606-14.15 33.985-14.15L34.003-14.15ZM27.837-49.11C27.603-49.11 27.376-49.017 27.212-48.854C27.049-48.69 26.956-48.469 26.956-48.235C26.956-45.447 26.956-36.837 26.956-34.043C26.956-33.809 27.049-33.582 27.212-33.418C27.382-33.255 27.609-33.162 27.842-33.168C31.71-33.214 35.583-33.319 39.445-33.249C39.684-33.243 39.912-33.331 40.081-33.494C40.244-33.663 40.344-33.885 40.344-34.124C40.344-36.697 40.344-43.948 40.344-43.959L40.344-48.189C40.344-48.422 40.244-48.65 40.081-48.813C39.912-48.976 39.684-49.064 39.451-49.064C35.578-48.994 31.704-49.081 27.837-49.11ZM39.439-51.695C39.678-51.689 39.906-51.776 40.075-51.945C40.244-52.109 40.344-52.336 40.344-52.57C40.344-53.485 40.344-54.763 40.344-54.769C40.344-54.769 40.344-54.769 40.344-54.769C40.344-55.212 39.976-55.586 39.544-55.603C39.538-55.603 39.538-55.603 39.538-55.603C38.138-55.621 29.032-55.603 27.784-55.603C27.784-55.603 27.784-55.603 27.784-55.603C27.341-55.597 26.962-55.218 26.956-54.775C26.956-54.769 26.956-54.769 26.956-54.769C26.956-54.763 26.956-53.485 26.956-52.57C26.956-52.336 27.049-52.109 27.218-51.945C27.387-51.776 27.615-51.689 27.854-51.695C31.716-51.794 35.578-51.794 39.439-51.695ZM56.864-65.8C56.864-66.016 57.033-66.185 57.243-66.191C57.377-66.197 57.505-66.197 57.634-66.202C57.64-66.202 57.64-66.202 57.64-66.202C57.733-66.202 57.832-66.202 57.931-66.202C58.147-66.202 58.322-66.027 58.322-65.812C58.322-65.421 58.322-64.89 58.322-64.89C58.322-64.89 60.702-64.814 60.842-64.808C60.848-64.808 60.848-64.808 60.854-64.808L61.011-64.802C61.064-64.797 61.116-64.797 61.169-64.791C61.192-64.791 61.216-64.791 61.239-64.785C62.452-64.534 62.785-62.376 61.064-62.288C61.058-62.288 61.058-62.288 61.052-62.288C56.129-62.282 51.2-62.422 46.276-62.282C46.276-62.282 46.27-62.282 46.27-62.282C44.509-62.195 43.219-60.538 41.551-59.85C40.863-59.564 40.128-59.412 39.381-59.389C39.375-59.389 39.369-59.389 39.363-59.389C38.751-59.383 38.144-59.383 37.532-59.377L36.919-59.377C36.855-59.377 34.37-59.377 34.37-59.377C34.37-59.377 34.37-59.016 34.37-58.683C34.37-58.543 34.312-58.409 34.213-58.31C34.113-58.211 33.979-58.152 33.839-58.152C33.711-58.152 33.583-58.152 33.454-58.152C33.314-58.152 33.18-58.211 33.081-58.31C32.982-58.409 32.923-58.543 32.923-58.683C32.923-59.016 32.923-59.383 32.923-59.383C32.923-59.383 30.432-59.389 30.392-59.389C30.386-59.389 30.386-59.389 30.386-59.389C30.077-59.389 29.762-59.389 29.452-59.389C29.447-59.389 29.441-59.389 29.435-59.389C28.945-59.418 28.782-59.541 28.566-59.756C27.877-60.445 28.338-61.839 29.441-61.903C29.447-61.903 29.447-61.903 29.452-61.903C29.767-61.903 30.088-61.903 30.403-61.903C30.403-61.903 30.403-61.903 30.403-61.903C30.403-61.903 30.403-61.903 30.403-61.903C30.403-61.909 30.403-61.909 30.403-61.909C30.473-61.909 32.923-61.909 32.923-61.909C32.923-61.909 32.923-62.323 32.923-62.685C32.923-62.825 32.982-62.959 33.081-63.058C33.18-63.157 33.314-63.216 33.454-63.216C33.583-63.216 33.717-63.216 33.839-63.216C34.131-63.216 34.37-62.977 34.37-62.685C34.37-62.312 34.37-61.868 34.37-61.868C34.37-61.868 36.808-61.868 36.913-61.868C36.913-61.868 36.919-61.868 36.919-61.868L37.228-61.868C37.946-61.874 38.669-61.886 39.387-61.909C39.393-61.909 39.393-61.909 39.393-61.909C41.154-61.996 42.444-63.647 44.112-64.342C44.8-64.627 45.535-64.773 46.282-64.797C46.288-64.797 46.294-64.797 46.299-64.797C48.971-64.826 51.643-64.89 54.315-64.907C54.32-64.907 54.32-64.907 54.326-64.907C54.425-64.907 56.864-64.907 56.864-64.907C56.864-64.907 56.864-65.427 56.864-65.8ZM59.162-70C59.512-70 59.798-69.714 59.798-69.364C59.798-69.364 59.798-69.364 59.798-69.364C59.798-69.014 59.518-68.728 59.168-68.728C58.421-68.722 57.681-68.717 56.934-68.711C56.934-68.711 56.934-68.711 56.934-68.711C56.66-68.711 56.24-68.711 55.907-68.717C55.615-68.717 55.388-68.95 55.388-69.236C55.388-69.236 55.388-69.242 55.388-69.242C55.388-69.44 55.464-69.632 55.61-69.778C55.75-69.918 55.942-70 56.146-70C56.998-70 58.363-70 59.162-70Z"/>
  </g>
  <g id="Regular-S" transform="matrix(1.00656 0 0 1.00656 1405.56 696)">
   <path class="monochrome-0 multicolor-0:tintColor hierarchical-0:primary SFSymbolsPreviewWireframe" d="M40.513-30.63C40.997-30.63 41.388-30.239 41.388-29.755C41.388-24.937 41.388-1.889 41.388-1.865C41.388-1.865 41.388-1.859 41.388-1.859C41.376-0.955 40.629-0.174 39.737-0.115C39.737-0.109 39.731-0.109 39.731-0.109C35.677 0.036 31.617 0.036 27.562-0.109C27.562-0.109 27.557-0.109 27.557-0.115C26.699-0.168 25.964-0.885 25.906-1.76C25.906-1.766 25.906-1.766 25.906-1.772C25.562-11.094 25.882-20.427 25.906-29.755C25.906-30.239 26.297-30.63 26.781-30.63C29.499-30.63 37.794-30.63 40.513-30.63ZM34.673-16.624C34.691-16.624 34.703-16.624 34.72-16.624C36.126-16.496 37.275-15.358 37.403-13.94C37.403-13.917 37.403-13.9 37.403-13.882C37.468-11.345 37.409-8.807 37.409-6.27C37.409-6.264 37.409-6.258 37.409-6.258C37.363-4.794 36.19-3.551 34.72-3.423C34.708-3.417 34.697-3.417 34.685-3.417C33.728-3.394 32.754-3.277 31.902-3.545C29.079-4.42 29.89-9.577 29.89-13.771C29.89-13.777 29.89-13.783 29.89-13.783C29.931-15.247 31.103-16.49 32.573-16.618C32.585-16.624 32.597-16.624 32.608-16.624C33.297-16.641 33.985-16.641 34.673-16.624ZM34.003-14.15C34.003-14.15 34.003-14.15 34.003-14.15C34.481-14.15 34.848-14.086 34.889-13.8C34.889-13.795 34.889-13.795 34.889-13.795C35.082-11.292 34.953-8.772 34.889-6.264C34.889-6.264 34.889-6.258 34.889-6.258C34.86-5.914 34.253-5.733 33.647-5.733L33.635-5.733C33.04-5.733 32.457-5.896 32.404-6.24C32.404-6.24 32.404-6.246 32.404-6.246C32.212-8.749 32.34-11.269 32.404-13.777C32.404-13.777 32.404-13.783 32.404-13.783C32.422-13.964 32.573-14.104 32.772-14.11C32.772-14.11 32.772-14.11 32.772-14.11C33.163-14.11 33.606-14.15 33.985-14.15L34.003-14.15ZM27.837-49.11C27.603-49.11 27.376-49.017 27.212-48.854C27.049-48.69 26.956-48.469 26.956-48.235C26.956-45.447 26.956-36.837 26.956-34.043C26.956-33.809 27.049-33.582 27.212-33.418C27.382-33.255 27.609-33.162 27.842-33.168C31.71-33.214 35.583-33.319 39.445-33.249C39.684-33.243 39.912-33.331 40.081-33.494C40.244-33.663 40.344-33.885 40.344-34.124C40.344-36.697 40.344-43.948 40.344-43.959L40.344-48.189C40.344-48.422 40.244-48.65 40.081-48.813C39.912-48.976 39.684-49.064 39.451-49.064C35.578-48.994 31.704-49.081 27.837-49.11ZM39.439-51.695C39.678-51.689 39.906-51.776 40.075-51.945C40.244-52.109 40.344-52.336 40.344-52.57C40.344-53.485 40.344-54.763 40.344-54.769C40.344-54.769 40.344-54.769 40.344-54.769C40.344-55.212 39.976-55.586 39.544-55.603C39.538-55.603 39.538-55.603 39.538-55.603C38.138-55.621 29.032-55.603 27.784-55.603C27.784-55.603 27.784-55.603 27.784-55.603C27.341-55.597 26.962-55.218 26.956-54.775C26.956-54.769 26.956-54.769 26.956-54.769C26.956-54.763 26.956-53.485 26.956-52.57C26.956-52.336 27.049-52.109 27.218-51.945C27.387-51.776 27.615-51.689 27.854-51.695C31.716-51.794 35.578-51.794 39.439-51.695ZM56.864-65.8C56.864-66.016 57.033-66.185 57.243-66.191C57.377-66.197 57.506-66.197 57.634-66.202C57.64-66.202 57.64-66.202 57.64-66.202C57.733-66.202 57.832-66.202 57.931-66.202C58.147-66.202 58.322-66.027 58.322-65.812C58.322-65.421 58.322-64.89 58.322-64.89C58.322-64.89 60.702-64.814 60.842-64.808C60.848-64.808 60.848-64.808 60.854-64.808L61.011-64.802C61.064-64.797 61.116-64.797 61.169-64.791C61.192-64.791 61.216-64.791 61.239-64.785C62.452-64.534 62.785-62.376 61.064-62.288C61.058-62.288 61.058-62.288 61.052-62.288C56.129-62.282 51.2-62.422 46.276-62.282C46.276-62.282 46.27-62.282 46.27-62.282C44.509-62.195 43.219-60.538 41.551-59.85C40.863-59.564 40.128-59.412 39.381-59.389C39.375-59.389 39.369-59.389 39.363-59.389C38.751-59.383 38.144-59.383 37.532-59.377L36.919-59.377C36.855-59.377 34.37-59.377 34.37-59.377C34.37-59.377 34.37-59.016 34.37-58.683C34.37-58.543 34.312-58.409 34.213-58.31C34.113-58.211 33.979-58.152 33.839-58.152C33.711-58.152 33.583-58.152 33.454-58.152C33.314-58.152 33.18-58.211 33.081-58.31C32.982-58.409 32.923-58.543 32.923-58.683C32.923-59.016 32.923-59.383 32.923-59.383C32.923-59.383 30.432-59.389 30.392-59.389C30.386-59.389 30.386-59.389 30.386-59.389C30.077-59.389 29.762-59.389 29.452-59.389C29.447-59.389 29.441-59.389 29.435-59.389C28.945-59.418 28.782-59.541 28.566-59.756C27.877-60.445 28.338-61.839 29.441-61.903C29.447-61.903 29.447-61.903 29.452-61.903C29.767-61.903 30.088-61.903 30.403-61.903C30.403-61.903 30.403-61.903 30.403-61.903C30.403-61.903 30.403-61.903 30.403-61.903C30.403-61.909 30.403-61.909 30.403-61.909C30.473-61.909 32.923-61.909 32.923-61.909C32.923-61.909 32.923-62.323 32.923-62.685C32.923-62.825 32.982-62.959 33.081-63.058C33.18-63.157 33.314-63.216 33.454-63.216C33.583-63.216 33.717-63.216 33.839-63.216C34.131-63.216 34.37-62.977 34.37-62.685C34.37-62.312 34.37-61.868 34.37-61.868C34.37-61.868 36.808-61.868 36.913-61.868C36.913-61.868 36.919-61.868 36.919-61.868L37.228-61.868C37.946-61.874 38.669-61.886 39.387-61.909C39.393-61.909 39.393-61.909 39.393-61.909C41.154-61.996 42.444-63.647 44.112-64.342C44.8-64.627 45.535-64.773 46.282-64.797C46.288-64.797 46.294-64.797 46.299-64.797C48.971-64.826 51.643-64.89 54.315-64.907C54.32-64.907 54.32-64.907 54.326-64.907C54.425-64.907 56.864-64.907 56.864-64.907C56.864-64.907 56.864-65.427 56.864-65.8ZM59.162-70C59.512-70 59.798-69.714 59.798-69.364C59.798-69.364 59.798-69.364 59.798-69.364C59.798-69.014 59.518-68.728 59.168-68.728C58.421-68.722 57.681-68.717 56.934-68.711C56.934-68.711 56.934-68.711 56.934-68.711C56.66-68.711 56.24-68.711 55.907-68.717C55.615-68.717 55.388-68.95 55.388-69.236C55.388-69.236 55.388-69.242 55.388-69.242C55.388-69.44 55.464-69.632 55.61-69.778C55.75-69.918 55.942-70 56.146-70C56.998-70 58.363-70 59.162-70Z"/>
  </g>
  <g id="Ultralight-S" transform="matrix(1.00656 0 0 1.00656 515.423 696)">
   <path class="monochrome-0 multicolor-0:tintColor hierarchical-0:primary SFSymbolsPreviewWireframe" d="M40.513-30.63C40.997-30.63 41.388-30.239 41.388-29.755C41.388-24.937 41.388-1.889 41.388-1.865C41.388-1.865 41.388-1.859 41.388-1.859C41.376-0.955 40.629-0.174 39.737-0.115C39.737-0.109 39.731-0.109 39.731-0.109C35.677 0.036 31.617 0.036 27.562-0.109C27.562-0.109 27.557-0.109 27.557-0.115C26.699-0.168 25.964-0.885 25.906-1.76C25.906-1.766 25.906-1.766 25.906-1.772C25.562-11.094 25.882-20.427 25.906-29.755C25.906-30.239 26.297-30.63 26.781-30.63C29.499-30.63 37.794-30.63 40.513-30.63ZM34.673-16.624C34.691-16.624 34.703-16.624 34.72-16.624C36.126-16.496 37.275-15.358 37.403-13.94C37.403-13.917 37.403-13.9 37.403-13.882C37.468-11.345 37.409-8.807 37.409-6.27C37.409-6.264 37.409-6.258 37.409-6.258C37.363-4.794 36.19-3.551 34.72-3.423C34.708-3.417 34.697-3.417 34.685-3.417C33.728-3.394 32.754-3.277 31.902-3.545C29.079-4.42 29.89-9.577 29.89-13.771C29.89-13.777 29.89-13.783 29.89-13.783C29.931-15.247 31.103-16.49 32.573-16.618C32.585-16.624 32.597-16.624 32.608-16.624C33.297-16.641 33.985-16.641 34.673-16.624ZM34.003-14.15C34.003-14.15 34.003-14.15 34.003-14.15C34.481-14.15 34.848-14.086 34.889-13.8C34.889-13.795 34.889-13.795 34.889-13.795C35.082-11.292 34.953-8.772 34.889-6.264C34.889-6.264 34.889-6.258 34.889-6.258C34.86-5.914 34.253-5.733 33.647-5.733L33.635-5.733C33.04-5.733 32.457-5.896 32.404-6.24C32.404-6.24 32.404-6.246 32.404-6.246C32.212-8.749 32.34-11.269 32.404-13.777C32.404-13.777 32.404-13.783 32.404-13.783C32.422-13.964 32.573-14.104 32.772-14.11C32.772-14.11 32.772-14.11 32.772-14.11C33.163-14.11 33.606-14.15 33.985-14.15L34.003-14.15ZM27.837-49.11C27.603-49.11 27.376-49.017 27.212-48.854C27.049-48.69 26.956-48.469 26.956-48.235C26.956-45.447 26.956-36.837 26.956-34.043C26.956-33.809 27.049-33.582 27.212-33.418C27.382-33.255 27.609-33.162 27.842-33.168C31.71-33.214 35.583-33.319 39.445-33.249C39.684-33.243 39.912-33.331 40.081-33.494C40.244-33.663 40.344-33.885 40.344-34.124C40.344-36.697 40.344-43.948 40.344-43.959L40.344-48.189C40.344-48.422 40.244-48.65 40.081-48.813C39.912-48.976 39.684-49.064 39.451-49.064C35.578-48.994 31.704-49.081 27.837-49.11ZM39.439-51.695C39.678-51.689 39.906-51.776 40.075-51.945C40.244-52.109 40.344-52.336 40.344-52.57C40.344-53.485 40.344-54.763 40.344-54.769C40.344-54.769 40.344-54.769 40.344-54.769C40.344-55.212 39.976-55.586 39.544-55.603C39.538-55.603 39.538-55.603 39.538-55.603C38.138-55.621 29.032-55.603 27.784-55.603C27.784-55.603 27.784-55.603 27.784-55.603C27.341-55.597 26.962-55.218 26.956-54.775C26.956-54.769 26.956-54.769 26.956-54.769C26.956-54.763 26.956-53.485 26.956-52.57C26.956-52.336 27.049-52.109 27.218-51.945C27.387-51.776 27.615-51.689 27.854-51.695C31.716-51.794 35.578-51.794 39.439-51.695ZM56.864-65.8C56.864-66.016 57.033-66.185 57.243-66.191C57.377-66.197 57.506-66.197 57.634-66.202C57.64-66.202 57.64-66.202 57.64-66.202C57.733-66.202 57.832-66.202 57.931-66.202C58.147-66.202 58.322-66.027 58.322-65.812C58.322-65.421 58.322-64.89 58.322-64.89C58.322-64.89 60.702-64.814 60.842-64.808C60.848-64.808 60.848-64.808 60.854-64.808L61.011-64.802C61.064-64.797 61.116-64.797 61.169-64.791C61.192-64.791 61.216-64.791 61.239-64.785C62.452-64.534 62.785-62.376 61.064-62.288C61.058-62.288 61.058-62.288 61.052-62.288C56.129-62.282 51.2-62.422 46.276-62.282C46.276-62.282 46.27-62.282 46.27-62.282C44.509-62.195 43.219-60.538 41.551-59.85C40.863-59.564 40.128-59.412 39.381-59.389C39.375-59.389 39.369-59.389 39.363-59.389C38.751-59.383 38.144-59.383 37.532-59.377L36.919-59.377C36.855-59.377 34.37-59.377 34.37-59.377C34.37-59.377 34.37-59.016 34.37-58.683C34.37-58.543 34.312-58.409 34.213-58.31C34.113-58.211 33.979-58.152 33.839-58.152C33.711-58.152 33.583-58.152 33.454-58.152C33.314-58.152 33.18-58.211 33.081-58.31C32.982-58.409 32.923-58.543 32.923-58.683C32.923-59.016 32.923-59.383 32.923-59.383C32.923-59.383 30.432-59.389 30.392-59.389C30.386-59.389 30.386-59.389 30.386-59.389C30.077-59.389 29.762-59.389 29.452-59.389C29.447-59.389 29.441-59.389 29.435-59.389C28.945-59.418 28.782-59.541 28.566-59.756C27.877-60.445 28.338-61.839 29.441-61.903C29.447-61.903 29.447-61.903 29.452-61.903C29.767-61.903 30.088-61.903 30.403-61.903C30.403-61.903 30.403-61.903 30.403-61.903C30.403-61.903 30.403-61.903 30.403-61.903C30.403-61.909 30.403-61.909 30.403-61.909C30.473-61.909 32.923-61.909 32.923-61.909C32.923-61.909 32.923-62.323 32.923-62.685C32.923-62.825 32.982-62.959 33.081-63.058C33.18-63.157 33.314-63.216 33.454-63.216C33.583-63.216 33.717-63.216 33.839-63.216C34.131-63.216 34.37-62.977 34.37-62.685C34.37-62.312 34.37-61.868 34.37-61.868C34.37-61.868 36.808-61.868 36.913-61.868C36.913-61.868 36.919-61.868 36.919-61.868L37.228-61.868C37.946-61.874 38.669-61.886 39.387-61.909C39.393-61.909 39.393-61.909 39.393-61.909C41.154-61.996 42.444-63.647 44.112-64.342C44.8-64.627 45.535-64.773 46.282-64.797C46.288-64.797 46.294-64.797 46.299-64.797C48.971-64.826 51.643-64.89 54.315-64.907C54.32-64.907 54.32-64.907 54.326-64.907C54.425-64.907 56.864-64.907 56.864-64.907C56.864-64.907 56.864-65.427 56.864-65.8ZM59.162-70C59.512-70 59.798-69.714 59.798-69.364C59.798-69.364 59.798-69.364 59.798-69.364C59.798-69.014 59.518-68.728 59.168-68.728C58.421-68.722 57.681-68.717 56.934-68.711C56.934-68.711 56.934-68.711 56.934-68.711C56.66-68.711 56.24-68.711 55.907-68.717C55.615-68.717 55.388-68.95 55.388-69.236C55.388-69.236 55.388-69.242 55.388-69.242C55.388-69.44 55.464-69.632 55.61-69.778C55.75-69.918 55.942-70 56.146-70C56.998-70 58.363-70 59.162-70Z"/>
  </g>
 </g>
</svg>
